<svg xmlns="http://www.w3.org/2000/svg" width="512" height="512" viewBox="0 0 512 512" role="img" aria-labelledby="title">
  <title id="title">Shuyler Ridge Raceday</title>
  <defs>
    <linearGradient id="chrome" x1="0" x2="0" y1="0" y2="1">
      <stop offset="0" stop-color="#fff"/>
      <stop offset=".52" stop-color="#bfc5ce"/>
      <stop offset="1" stop-color="#fff"/>
    </linearGradient>
    <linearGradient id="red" x1="0" x2="1">
      <stop offset="0" stop-color="#ff3038"/>
      <stop offset="1" stop-color="#a40d18"/>
    </linearGradient>
    <linearGradient id="blue" x1="0" x2="1">
      <stop offset="0" stop-color="#0067c8"/>
      <stop offset="1" stop-color="#1387ff"/>
    </linearGradient>
    <filter id="shadow">
      <feDropShadow dx="0" dy="12" stdDeviation="12" flood-color="#000" flood-opacity=".65"/>
    </filter>
  </defs>
  <rect width="512" height="512" rx="92" fill="#020202"/>
  <g filter="url(#shadow)">
    <path d="M65 118 L446 72 Q482 70 475 107 L456 189 L484 190 L477 217 L447 217 L421 378 Q414 414 378 418 L96 443 Q70 446 76 416 L82 384 L25 389 L34 356 L95 351 L110 295 L52 298 L62 267 L119 262 L135 157 Q140 126 173 122 Z" fill="#050505" stroke="#cfd2d8" stroke-width="8" stroke-linejoin="round"/>
    <g transform="translate(99 136) skewX(-12)">
      <rect x="0" y="0" width="20" height="74" rx="6" fill="#ffd22e"/>
      <rect x="27" y="0" width="20" height="74" rx="6" fill="#ffd22e"/>
      <rect x="60" y="0" width="31" height="74" rx="6" fill="url(#red)"/>
      <rect x="100" y="0" width="31" height="74" rx="6" fill="url(#red)"/>
      <rect x="143" y="0" width="43" height="74" rx="6" fill="url(#blue)"/>
      <rect x="197" y="0" width="44" height="74" rx="6" fill="url(#blue)"/>
    </g>
    <path d="M248 191 L310 143 L344 169 L384 130 L418 154 L454 130 L483 154 L454 160 L416 187 L383 169 L347 200 L312 188 L266 207 Z" fill="url(#chrome)"/>
    <path d="M279 105 C329 81 390 66 458 59 C371 83 311 103 274 124 Z" stroke="#ef233c" stroke-width="7" fill="none"/>
    <g font-family="Arial Black, Impact, sans-serif" font-weight="900" font-style="italic" letter-spacing="-4">
      <text x="51" y="286" font-size="82" fill="#000" stroke="#000" stroke-width="18" transform="skewX(-11)">SHUYLER</text>
      <text x="51" y="286" font-size="82" fill="url(#chrome)" stroke="#fff" stroke-width="2" transform="skewX(-11)">SHUYLER</text>
      <text x="72" y="367" font-size="86" fill="#000" stroke="#000" stroke-width="16" transform="skewX(-11)">RIDGE</text>
      <text x="72" y="367" font-size="86" fill="url(#red)" transform="skewX(-11)">RIDGE</text>
      <text x="135" y="417" font-size="42" fill="url(#chrome)" letter-spacing="7" transform="skewX(-8)">RACEDAY</text>
    </g>
    <path d="M119 438 L385 420" stroke="#ef233c" stroke-width="4"/>
    <g transform="translate(389 395) skewX(-9) scale(.52)">
      <rect x="0" y="0" width="32" height="32" fill="#fff"/>
      <rect x="64" y="0" width="32" height="32" fill="#fff"/>
      <rect x="32" y="32" width="32" height="32" fill="#fff"/>
      <rect x="96" y="32" width="32" height="32" fill="#fff"/>
      <rect x="32" y="0" width="32" height="32" fill="#111"/>
      <rect x="96" y="0" width="32" height="32" fill="#111"/>
      <rect x="0" y="32" width="32" height="32" fill="#111"/>
      <rect x="64" y="32" width="32" height="32" fill="#111"/>
    </g>
  </g>
</svg>
