<svg xmlns="http://www.w3.org/2000/svg" width="1800" height="700" viewBox="0 0 1800 700" role="img" aria-labelledby="title">
  <title id="title">Shuyler Ridge Raceday Fantasy Sports App</title>
  <defs>
    <linearGradient id="chrome" x1="0" x2="0" y1="0" y2="1">
      <stop offset="0" stop-color="#ffffff"/>
      <stop offset=".42" stop-color="#f5f7fb"/>
      <stop offset=".56" stop-color="#b8bec7"/>
      <stop offset="1" stop-color="#ffffff"/>
    </linearGradient>
    <linearGradient id="red" x1="0" x2="1" y1="0" y2="1">
      <stop offset="0" stop-color="#ff2e35"/>
      <stop offset=".45" stop-color="#ef233c"/>
      <stop offset="1" stop-color="#9b0c18"/>
    </linearGradient>
    <linearGradient id="blue" x1="0" x2="1">
      <stop offset="0" stop-color="#0064c6"/>
      <stop offset="1" stop-color="#1185ff"/>
    </linearGradient>
    <linearGradient id="yellow" x1="0" x2="1">
      <stop offset="0" stop-color="#ffcf23"/>
      <stop offset="1" stop-color="#ffe568"/>
    </linearGradient>
    <linearGradient id="silver" x1="0" x2="1">
      <stop offset="0" stop-color="#585b63"/>
      <stop offset=".45" stop-color="#f3f4f6"/>
      <stop offset="1" stop-color="#656973"/>
    </linearGradient>
    <filter id="shadow" x="-8%" y="-20%" width="116%" height="140%">
      <feDropShadow dx="0" dy="16" stdDeviation="16" flood-color="#000" flood-opacity=".7"/>
    </filter>
  </defs>

  <rect width="1800" height="700" fill="#000"/>

  <g filter="url(#shadow)">
    <path d="M120 300 H1680 Q1724 300 1717 344 L1686 490 Q1679 526 1644 528 H356 Q326 528 334 498 L343 465 H86 Q57 465 65 436 L94 332 Q102 300 120 300 Z" fill="#050505" stroke="#bfc3ca" stroke-width="10" stroke-linejoin="round"/>
    <path d="M124 320 H1646 Q1674 320 1669 344 L1645 458 Q1640 482 1615 482 H407 Q382 482 388 458 L397 421 H105 L124 320 Z" fill="#080808" stroke="#3b3f46" stroke-width="3" stroke-linejoin="round"/>

    <g transform="translate(125 330) skewX(-12)">
      <rect x="0" y="0" width="34" height="122" rx="8" fill="url(#yellow)"/>
      <rect x="47" y="0" width="34" height="122" rx="8" fill="url(#yellow)"/>
      <rect x="100" y="0" width="52" height="122" rx="8" fill="url(#red)"/>
      <rect x="169" y="0" width="52" height="122" rx="8" fill="url(#red)"/>
      <rect x="243" y="0" width="68" height="122" rx="8" fill="url(#blue)"/>
      <rect x="329" y="0" width="68" height="122" rx="8" fill="url(#blue)"/>
    </g>

    <path d="M1004 248 C1168 178 1390 149 1581 166 C1357 182 1169 213 1007 275 Z" fill="#ef233c"/>
    <path d="M1106 337 L1216 274 L1279 311 L1375 248 L1445 285 L1537 234 L1631 282 L1582 291 L1540 270 L1444 326 L1373 292 L1282 348 L1217 329 L1132 368 Z" fill="url(#silver)"/>
    <path d="M1084 384 C1263 340 1451 339 1628 363 C1673 356 1701 334 1715 300 C1741 346 1697 388 1627 412 C1435 390 1262 393 1084 430 Z" fill="#fff"/>

    <g font-family="Arial Black, Impact, sans-serif" font-weight="900" font-style="italic">
      <text x="362" y="428" fill="#000" stroke="#000" stroke-width="28" font-size="128" letter-spacing="-7" transform="skewX(-10)">SHUYLER</text>
      <text x="362" y="428" fill="url(#chrome)" stroke="#ffffff" stroke-width="3" font-size="128" letter-spacing="-7" transform="skewX(-10)">SHUYLER</text>
      <text x="1138" y="426" fill="#000" stroke="#000" stroke-width="28" font-size="128" letter-spacing="-6" transform="skewX(-10)">RIDGE</text>
      <text x="1138" y="426" fill="url(#red)" stroke="#ef233c" stroke-width="2" font-size="128" letter-spacing="-6" transform="skewX(-10)">RIDGE</text>
    </g>

    <g transform="translate(395 457)">
      <path d="M0 32 L84 23" stroke="#7d828b" stroke-width="6"/>
      <path d="M0 48 L84 40" stroke="#a5aab3" stroke-width="5"/>
      <path d="M0 64 L84 56" stroke="#53575f" stroke-width="4"/>
      <text x="112" y="72" fill="url(#chrome)" font-family="Arial Black, Impact, sans-serif" font-size="67" font-style="italic" font-weight="900" letter-spacing="24">RACEDAY</text>
    </g>

    <g transform="translate(929 468) skewX(-8)">
      <rect x="0" y="0" width="38" height="38" fill="#fff"/>
      <rect x="76" y="0" width="38" height="38" fill="#fff"/>
      <rect x="152" y="0" width="38" height="38" fill="#fff"/>
      <rect x="38" y="38" width="38" height="38" fill="#fff"/>
      <rect x="114" y="38" width="38" height="38" fill="#fff"/>
      <rect x="190" y="38" width="38" height="38" fill="#fff"/>
      <rect x="38" y="0" width="38" height="38" fill="#111"/>
      <rect x="114" y="0" width="38" height="38" fill="#111"/>
      <rect x="190" y="0" width="38" height="38" fill="#111"/>
      <rect x="0" y="38" width="38" height="38" fill="#111"/>
      <rect x="76" y="38" width="38" height="38" fill="#111"/>
      <rect x="152" y="38" width="38" height="38" fill="#111"/>
    </g>

    <path d="M1120 448 H1658 Q1680 448 1676 469 L1664 526 Q1659 548 1637 548 H1100 Q1078 548 1083 526 L1094 469 Q1099 448 1120 448 Z" fill="#050505" stroke="#ef233c" stroke-width="7"/>
    <path d="M1106 541 H1648" stroke="#0075d4" stroke-width="5" stroke-linecap="round"/>
    <text x="1150" y="522" fill="#f8fafc" font-family="Arial Black, Impact, sans-serif" font-size="48" font-style="italic" font-weight="900" letter-spacing="5">FANTASY SPORTS APP</text>
  </g>
</svg>
